<svg id="svg" version="1.1" xmlns="http://www.w3.org/2000/svg" xmlns:xlink="http://www.w3.org/1999/xlink" width="400" height="229" viewBox="0, 0, 400,229"><g id="svgg"><path id="path0" d="M74.550 25.284 C 73.727 26.540,69.877 37.003,65.994 48.534 C 62.112 60.065,57.173 74.675,55.018 81.000 C 52.864 87.325,45.889 107.800,39.520 126.500 C 33.150 145.200,26.806 163.834,25.423 167.909 C 21.837 178.471,21.112 178.000,40.946 178.000 C 57.486 178.000,57.994 177.938,59.409 175.750 C 60.637 173.851,68.434 151.347,86.519 97.500 C 88.367 92.000,93.536 76.925,98.008 64.000 C 108.963 32.333,111.206 25.143,110.490 23.983 C 109.023 21.609,76.178 22.798,74.550 25.284 M134.626 25.250 C 133.845 26.488,127.326 45.050,120.139 66.500 C 105.305 110.776,90.568 154.124,78.086 190.197 C 75.288 198.281,73.000 205.531,73.000 206.308 C 73.000 208.635,96.140 210.122,104.943 208.361 C 109.519 207.446,109.941 206.526,121.438 172.409 C 127.167 155.409,136.637 127.550,142.484 110.500 C 154.805 74.566,168.704 33.907,170.227 29.338 C 172.292 23.146,171.898 23.000,153.054 23.000 C 136.504 23.000,136.008 23.061,134.626 25.250 M194.209 23.850 C 193.498 24.301,186.807 42.631,179.338 64.585 C 171.870 86.538,159.112 124.075,150.987 148.000 C 142.862 171.925,135.235 194.200,134.037 197.500 C 130.522 207.187,130.568 207.330,137.500 208.277 C 147.041 209.580,165.662 208.780,167.367 206.994 C 168.693 205.605,176.801 182.724,189.512 144.500 C 195.348 126.952,218.356 59.534,223.127 46.000 C 227.075 34.804,228.103 31.256,228.707 26.750 L 229.210 23.000 212.355 23.015 C 203.085 23.024,194.919 23.399,194.209 23.850 M240.199 24.260 C 238.402 26.425,232.057 45.985,232.650 47.531 C 233.071 48.626,234.966 49.000,240.107 49.000 C 243.898 49.000,247.000 49.209,247.000 49.465 C 247.000 49.897,243.173 61.109,232.483 92.000 C 214.511 143.933,193.782 204.743,193.654 205.904 C 193.382 208.379,199.143 209.144,213.868 208.590 C 229.909 207.986,230.359 207.805,232.432 201.130 C 237.134 185.995,260.152 119.448,260.967 118.633 C 261.606 117.994,269.589 133.172,283.934 162.298 C 301.906 198.788,306.340 207.045,308.211 207.507 C 314.263 208.999,343.466 207.544,343.814 205.733 C 344.000 204.762,335.119 185.693,324.077 163.358 C 313.034 141.022,304.000 122.612,304.000 122.445 C 304.000 122.088,318.949 108.992,341.035 90.000 C 383.525 53.463,388.000 49.438,388.000 47.766 C 388.000 46.125,386.228 46.000,363.013 46.000 L 338.027 46.000 331.263 51.694 C 327.544 54.825,320.845 60.563,316.377 64.444 C 311.909 68.325,300.928 77.800,291.975 85.500 C 283.021 93.200,273.499 101.413,270.814 103.750 C 268.130 106.088,265.446 108.000,264.850 108.000 C 263.558 108.000,262.858 110.326,273.427 79.500 C 279.485 61.830,281.828 53.694,281.420 51.750 L 280.841 49.000 287.986 49.000 C 296.471 49.000,298.593 48.060,299.867 43.738 C 300.392 41.957,302.005 37.193,303.452 33.152 C 305.494 27.445,305.822 25.490,304.918 24.402 C 303.297 22.448,241.815 22.313,240.199 24.260 M23.181 182.650 C 19.620 183.429,11.514 204.914,13.887 207.287 C 15.676 209.076,46.608 208.819,48.382 207.000 C 50.687 204.636,57.221 184.821,56.074 183.674 C 55.044 182.644,27.176 181.777,23.181 182.650 " stroke="none" fill="#000000" fill-rule="evenodd"></path></g></svg>