<?xml version="1.0" encoding="UTF-8" standalone="no"?>
<!-- Created with Inkscape (http://www.inkscape.org/) -->

<svg
   xmlns:dc="http://purl.org/dc/elements/1.1/"
   xmlns:cc="http://creativecommons.org/ns#"
   xmlns:rdf="http://www.w3.org/1999/02/22-rdf-syntax-ns#"
   xmlns:svg="http://www.w3.org/2000/svg"
   xmlns="http://www.w3.org/2000/svg"
   xmlns:sodipodi="http://sodipodi.sourceforge.net/DTD/sodipodi-0.dtd"
   xmlns:inkscape="http://www.inkscape.org/namespaces/inkscape"
   width="52.917mm"
   height="15.875mm"
   viewBox="0 0 52.917 15.875"
   version="1.1"
   id="svg8"
   inkscape:version="0.92.3 (2405546, 2018-03-11)"
   sodipodi:docname="logoIIITK.svg">
  <defs
     id="defs2" />
  <sodipodi:namedview
     id="base"
     pagecolor="#ffffff"
     bordercolor="#666666"
     borderopacity="1.0"
     inkscape:pageopacity="0.0"
     inkscape:pageshadow="2"
     inkscape:zoom="2.8"
     inkscape:cx="-5.714287"
     inkscape:cy="20.714285"
     inkscape:document-units="mm"
     inkscape:current-layer="layer1"
     showgrid="false"
     showguides="true"
     inkscape:guide-bbox="true"
     inkscape:window-width="1853"
     inkscape:window-height="1016"
     inkscape:window-x="67"
     inkscape:window-y="27"
     inkscape:window-maximized="1" />
  <metadata
     id="metadata5">
    <rdf:RDF>
      <cc:Work
         rdf:about="">
        <dc:format>image/svg+xml</dc:format>
        <dc:type
           rdf:resource="http://purl.org/dc/dcmitype/StillImage" />
        <dc:title></dc:title>
      </cc:Work>
    </rdf:RDF>
  </metadata>
  <g
     inkscape:label="Layer 1"
     inkscape:groupmode="layer"
     id="layer1"
     transform="translate(0,-281.125)">
    <g
       id="svgg"
       transform="matrix(0.05363631,0,0,0.05363701,15.69161,282.84517)"
       style="opacity:1;fill:#263238;fill-opacity:1">
      <g
         id="g6337">
        <path
           style="fill:#263238;fill-opacity:1;fill-rule:evenodd;stroke:none"
           inkscape:connector-curvature="0"
           id="path0"
           d="m 74.55,25.284 c -0.823,1.256 0,0 -8.556,23.25 C 55.018,81 57.173,74.675 55.018,81 52.864,87.325 45.889,107.8 39.52,126.5 33.15,145.2 26.806,163.834 25.423,167.909 21.837,178.471 21.112,178 40.946,178 c 16.54,0 17.048,-0.062 18.463,-2.25 1.228,-1.899 9.025,-24.403 27.11,-78.25 C 88.367,92 93.536,76.925 98.008,64 108.963,32.333 111.206,25.143 110.49,23.983 109.023,21.609 76.178,22.798 74.55,25.284 m 60.076,-0.034 c -0.781,1.238 -7.3,19.8 -14.487,41.25 -14.834,44.276 -29.571,87.624 -42.053,123.697 -2.798,8.084 -5.086,15.334 -5.086,16.111 0,2.327 23.14,3.814 31.943,2.053 4.576,-0.915 4.998,-1.835 16.495,-35.952 5.729,-17 15.199,-44.859 21.046,-61.909 12.321,-35.934 26.22,-76.593 27.743,-81.162 2.065,-6.192 1.671,-6.338 -17.173,-6.338 -16.55,0 -17.046,0.061 -18.428,2.25 m 59.583,-1.4 c -0.711,0.451 -7.402,18.781 -14.871,40.735 -7.468,21.953 -20.226,59.49 -28.351,83.415 -8.125,23.925 -15.752,46.2 -16.95,49.5 -3.515,9.687 -3.469,9.83 3.463,10.777 9.541,1.303 28.162,0.503 29.867,-1.283 1.326,-1.389 9.434,-24.27 22.145,-62.494 5.836,-17.548 28.844,-84.966 33.615,-98.5 3.948,-11.196 4.976,-14.744 5.58,-19.25 L 229.21,23 212.355,23.015 c -9.27,0.009 -17.436,0.384 -18.146,0.835 m 45.99,0.41 c -1.797,2.165 -8.142,21.725 -7.549,23.271 0.421,1.095 2.316,1.469 7.457,1.469 3.791,0 6.893,0.209 6.893,0.465 0,0.432 -3.827,11.644 -14.517,42.535 -17.972,51.933 -38.701,112.743 -38.829,113.904 -0.272,2.475 5.489,3.24 20.214,2.686 16.041,-0.604 16.491,-0.785 18.564,-7.46 4.702,-15.135 27.72,-81.682 28.535,-82.497 0.639,-0.639 8.622,14.539 22.967,43.665 17.972,36.49 22.406,44.747 24.277,45.209 6.052,1.492 35.255,0.037 35.603,-1.774 0.186,-0.971 -8.695,-20.04 -19.737,-42.375 C 313.034,141.022 304,122.612 304,122.445 304,122.088 318.949,108.992 341.035,90 383.525,53.463 388,49.438 388,47.766 388,46.125 386.228,46 363.013,46 h -24.986 l -6.764,5.694 c -3.719,3.131 -10.418,8.869 -14.886,12.75 -4.468,3.881 -15.449,13.356 -24.402,21.056 -8.954,7.7 -18.476,15.913 -21.161,18.25 -2.684,2.338 -5.368,4.25 -5.964,4.25 -1.292,0 -1.992,2.326 8.577,-28.5 6.058,-17.67 8.401,-25.806 7.993,-27.75 L 280.841,49 h 7.145 c 8.485,0 10.607,-0.94 11.881,-5.262 0.525,-1.781 2.138,-6.545 3.585,-10.586 2.042,-5.707 2.37,-7.662 1.466,-8.75 -1.621,-1.954 -63.103,-2.089 -64.719,-0.142 M 23.181,182.65 c -3.561,0.779 -11.667,22.264 -9.294,24.637 1.789,1.789 32.721,1.532 34.495,-0.287 2.305,-2.364 8.839,-22.179 7.692,-23.326 -1.03,-1.03 -28.898,-1.897 -32.893,-1.024"
           sodipodi:nodetypes="cccccsccccccccsccccscccscccccccccccssccccsccccscssccsccscccscccccscsc" />
      </g>
    </g>
  </g>
</svg>
